<svg version="1.1" id="Layer_1" xmlns="http://www.w3.org/2000/svg" xmlns:xlink="http://www.w3.org/1999/xlink" x="0px" y="0px" viewBox="0 0 24 24" enable-background="new 0 0 24 24" xml:space="preserve">
<path fill="#5ebaeb" d="M21,17c0.2763672,0,0.5-0.2236328,0.5-0.5v-2c0-0.2763672-0.2236328-0.5-0.5-0.5s-0.5,0.2236328-0.5,0.5
	v0.222168v0.1351318c-0.003418-0.0008545-0.0067749-0.001709-0.0101929-0.0026245
	C20.4906006,14.8103638,20.5,14.7664795,20.5,14.722168c0-0.8642578-0.1386719-1.71875-0.4121094-2.5395508l-1.1269531-3.3808594
	c-0.3798828-1.1386719-1.2910156-1.9912109-2.4384766-2.2802734C16.1083374,6.4174194,15.581665,6.3074951,15,6.213501V5h0.5
	c0.5517578,0,1-0.4487305,1-1V2c0-1.1030273-0.8974609-2-2-2h-4c-1.1025391,0-2,0.8969727-2,2v2c0,0.5512695,0.4482422,1,1,1H10
	v1.213501C9.418335,6.3074951,8.8916626,6.4174194,8.4775391,6.5214844C8.4154663,6.5371094,8.3625488,6.5714722,8.3019409,6.590332
	C7.0931396,5.09021,6.2741089,3.7703857,5.8355713,3H6c0.2763672,0,0.5-0.2236328,0.5-0.5S6.2763672,2,6,2H4
	C3.7236328,2,3.5,2.2236328,3.5,2.5S3.7236328,3,4,3h0.6951294c0.3288574,0.6196289,1.2192993,2.1855469,2.6928101,4.0408325
	c-0.6149902,0.4221802-1.1019287,1.0206909-1.348877,1.7609253l-1.1269531,3.3808594
	c-0.1434937,0.4307251-0.2449951,0.8713989-0.3137207,1.3172607C4.2194824,13.3903809,3.8533325,13.272522,3.5,13.1469727V12.5
	C3.5,12.2236328,3.2763672,12,3,12s-0.5,0.2236328-0.5,0.5v2C2.5,14.7763672,2.7236328,15,3,15s0.5-0.2236328,0.5-0.5v-0.3104858
	c0.3305664,0.1104736,0.6692505,0.21521,1.0177002,0.3128662C4.515686,14.5760498,4.5,14.6483154,4.5,14.722168
	c0,0.7818604,0.1209717,1.5603027,0.3554077,2.322998C4.0813599,17.2196655,3.5,17.9100342,3.5,18.7358398
	c0,0.7978516,0.1523438,2.7426758,0.5058594,3.6230469l0.2197266,0.5498047C4.4902344,23.5717773,5.1230469,24,5.8369141,24
	h13.3994141c0.6611328,0,1.2558594-0.3671875,1.5527344-0.9594727C21.2910156,22.034668,21.5,19.9306641,21.5,19.027832v-0.2919922
	c0-0.8258057-0.5812988-1.5161133-1.3553467-1.6906738c0.1085205-0.3530884,0.1867676-0.710144,0.2459106-1.0687866
	c0.0366211-0.0009155,0.0757446-0.0019531,0.109436-0.0028687V16.5C20.5,16.7763672,20.7236328,17,21,17z M15.7900391,9.4306641
	c0.1445313,0.0366211,0.2724495,0.1616211,0.3242188,0.3198242l1.1269531,3.3808594
	c0.071106,0.2130127,0.1185303,0.4312134,0.1604614,0.6502075c-2.7402954-1.2107544-4.9876099-2.9119263-6.7677612-4.6352539
	C11.203186,9.0609741,11.8383789,9,12.5,9C13.8027344,9,15.0078125,9.234375,15.7900391,9.4306641z M7.7587891,13.1313477
	l1.1269531-3.3823242c0.0517464-0.1567383,0.1787109-0.2822266,0.3232422-0.3183594
	C9.2808228,9.4126587,9.3729858,9.394043,9.4516602,9.3756104c2.0244141,2.0588379,4.6936035,4.1417847,8.0379028,5.5244141
	c-0.0012207,0.0338745-0.0040283,0.067688-0.0059204,0.1015625c-2.6746826-0.0357666-6.4779663-0.2134399-9.939209-0.8300781
	C7.583374,13.8192139,7.6456909,13.4700317,7.7587891,13.1313477z M17.3311768,15.991333
	c-0.0877686,0.3371582-0.204834,0.6665039-0.3594971,0.9769287l-0.75177,1.4799805C15.2199097,18.2145996,13.9213257,18,12.5,18
	s-2.7199097,0.2145996-3.7198486,0.4482422L8.03125,16.9736328c-0.2802124-0.5616455-0.447937-1.1765747-0.5047607-1.8004761
	C10.9714966,15.7767334,14.671814,15.9550781,17.3311768,15.991333z M17.6582031,21.4741211
	C17.59375,21.4956055,16.0400391,22,12.5,22s-5.09375-0.5043945-5.1582031-0.5258789
	C7.0800781,21.387207,6.9394531,21.1054688,7.0263672,20.84375c0.0859375-0.2626953,0.3720703-0.4047852,0.6298828-0.3183594
	C7.6708984,20.5297852,9.1513672,21,12.5,21s4.8291016-0.4702148,4.84375-0.4746094
	c0.2568359-0.0864258,0.5429688,0.0556641,0.6298828,0.3183594C18.0605469,21.1054688,17.9199219,21.387207,17.6582031,21.4741211z" id="id_101"></path>
<g>
</g>
<g>
</g>
<g>
</g>
<g>
</g>
<g>
</g>
<g>
</g>
<g>
</g>
<g>
</g>
<g>
</g>
<g>
</g>
<g>
</g>
<g>
</g>
<g>
</g>
<g>
</g>
<g>
</g>
</svg>