<?xml version="1.0" encoding="UTF-8" standalone="no"?> <svg id="Layer_x0020_1" xmlns="http://www.w3.org/2000/svg" width="900" height="900" viewBox="0 0 900 900">
  <circle id="Ellipse_25" data-name="Ellipse 25" cx="450" cy="450" r="450" fill="#f38f41"/>
  <path id="Path_210" data-name="Path 210" d="M587.649,403.23a4.982,4.982,0,0,0-.156,9.963,116.945,116.945,0,0,0,23.247-2.1c11.616-2.3,24.574-7.076,32.122-16.889a4.985,4.985,0,1,0-7.89-6.094c-5.735,7.456-16.426,11.251-26.146,13.176a106.174,106.174,0,0,1-21.177,1.941Z" fill="#4e565a"/>
  <path id="Path_211" data-name="Path 211" d="M579.171,499.052a4.994,4.994,0,1,0-3.751,9.257,114.941,114.941,0,0,1,33.033,20.561,133.879,133.879,0,0,1,26.052,31.8,4.985,4.985,0,0,0,8.556-5.117,143.748,143.748,0,0,0-28.005-34.146,124.887,124.887,0,0,0-35.884-22.356Z" fill="#4e565a"/>
  <path id="Path_212" data-name="Path 212" d="M706,394.061V564.447c0,17.083-9.454,28.056-21.55,32.885a39.574,39.574,0,0,1-29.119,0c-12.1-4.83-21.549-15.8-21.549-32.885V394.061c0-17.082,9.452-28.055,21.549-32.885a39.573,39.573,0,0,1,29.119,0c12.1,4.831,21.55,15.8,21.55,32.885Z" fill="#da4a54"/>
  <path id="Path_213" data-name="Path 213" d="M333.524,299.893H587.571a5,5,0,0,1,5,5V459.472A106.114,106.114,0,0,1,486.758,565.284h-161.3c-51.948,0-97.35-42.112-118.6-92.7a161.184,161.184,0,0,1-12.725-54.8c-.823-18.541,2.1-36.7,9.516-53,17.01-37.374,57.309-64.886,129.873-64.886Z" fill="#da4a54"/>
  <path id="Path_214" data-name="Path 214" d="M351.581,331.721H548.32a5,5,0,0,1,5,5V456.43A83.305,83.305,0,0,1,470.249,539.5H345.334c-27.521,0-52.339-15.376-70.728-37.655-19.948-24.168-32.386-56.613-32.386-86.21,0-25.868,11.137-46.775,30.366-61.316,19.276-14.576,46.674-22.6,78.995-22.6Z" fill="#65c5ef"/>
  <path id="Path_215" data-name="Path 215" d="M321.344,370.377a4.981,4.981,0,0,0-1.757-9.807c-.119.021-42.052,7.211-51.66,49.247a4.99,4.99,0,0,0,9.729,2.228c8.13-35.572,43.589-41.65,43.689-41.668Z" fill="#fff"/>
  <path id="Path_216" data-name="Path 216" d="M335.444,384.335a5,5,0,1,0-1.72-9.843c-.1.017-33.494,5.744-41.146,39.223a4.99,4.99,0,0,0,9.728,2.228c6.168-26.982,33.061-31.595,33.138-31.608Z" fill="#fff"/>
</svg>
