<?xml version="1.0" encoding="UTF-8" standalone="no"?> <svg xmlns="http://www.w3.org/2000/svg" viewBox="0 0 64 64"><g id="oil-Funnel-car_service-lubricant" data-name="oil-Funnel-car service-lubricant"><path d="M59.72,25.81,48.15,15.07A3.982,3.982,0,0,0,45.43,14H21a2.006,2.006,0,0,0-2,2V59a2.006,2.006,0,0,0,2,2H59a2.006,2.006,0,0,0,2-2V28.74A3.989,3.989,0,0,0,59.72,25.81Zm-4.79,7.26a2.841,2.841,0,0,1-3.93.08L41.15,24A2.83,2.83,0,0,1,45,19.85L54.85,29A2.833,2.833,0,0,1,54.93,33.07Z" style="fill:#ffeb99"/><rect x="20" y="3" width="4" height="6" style="fill:#ff5023"/><rect x="28" y="3" width="4" height="6" style="fill:#ff5023"/><rect x="24" y="3" width="4" height="6" style="fill:#ff9811"/><rect x="22" y="9" width="12" height="5" style="fill:#ffde55"/><rect x="32" y="3" width="4" height="6" style="fill:#ff9811"/><rect x="22" y="9" width="12" height="1" style="fill:#ebbf00"/><rect x="21" y="16" width="8" height="2" rx="1" style="fill:#ffda44"/><polygon points="42 30 32.333 30 27 38 27 57 52 57 52 39 42 30" style="fill:#ff9811"/><polygon points="30.89 30 32.333 30 35 26 19 26 19 53.333 23 56 23 44 27 38 27 35.69 30.89 30" style="fill:#ffde55"/><polygon points="30.89 30 27 35.69 27 38 32.333 30 30.89 30" style="fill:#ffb655"/><polygon points="31.58 29 22 43 22 54 16 50 16 43 6.42 29 31.58 29" style="fill:#ff6243"/><polygon points="35 24 31.58 29 6.42 29 3 24 35 24" style="fill:#ffbcab"/><rect x="10" y="30" width="4" height="2" rx="1" style="fill:#ff7956"/><rect x="6" y="25" width="6" height="2" rx="1" style="fill:#ff9478"/><path d="M45,46a6,6,0,0,1-12,0c0-3.31,6-10,6-10S45,42.69,45,46Z" style="fill:#3e3d42"/></g></svg>