<?xml version="1.0" encoding="UTF-8" standalone="no"?> <svg width="64" height="64" viewBox="0 0 64 64" fill="none" xmlns="http://www.w3.org/2000/svg">
<path d="M52.9999 25H10.9999L6.99994 37H56.9999L52.9999 25ZM13.9999 33L14.9999 29H48.9999L49.9999 33H13.9999Z" fill="#E9F1F2"/>
<path d="M52.9999 25H50.5699L51.3499 30.43C51.4303 30.9975 51.388 31.5755 51.226 32.1253C51.0639 32.675 50.7859 33.1836 50.4106 33.6167C50.0352 34.0498 49.5714 34.3974 49.0503 34.6361C48.5292 34.8747 47.9631 34.9988 47.3899 35H16.6099C16.0368 34.9988 15.4706 34.8747 14.9496 34.6361C14.4285 34.3974 13.9646 34.0498 13.5893 33.6167C13.214 33.1836 12.9359 32.675 12.7739 32.1253C12.6118 31.5755 12.5696 30.9975 12.6499 30.43L13.4299 25H10.9999L6.99994 37H56.9999L52.9999 25Z" fill="#D0D8DA"/>
<path d="M35.9999 46H27.9999L28.9999 57H34.9999L35.9999 46Z" fill="#E9F1F2"/>
<path d="M31.5599 51C31.5602 51.1652 31.5803 51.3297 31.6199 51.49C31.7278 51.9224 31.9775 52.3062 32.3292 52.58C32.6809 52.8537 33.1143 53.0016 33.5599 53H35.3599L34.9999 57H28.9999L27.9999 46H35.9999L35.7299 49H33.5599C33.03 49.0016 32.5222 49.2128 32.1475 49.5875C31.7727 49.9623 31.5615 50.4701 31.5599 51Z" fill="#D0D8DA"/>
<path d="M32 3C26.2643 3 20.6574 4.70082 15.8884 7.88738C11.1194 11.0739 7.40239 15.6031 5.20745 20.9022C3.0125 26.2012 2.43821 32.0322 3.55718 37.6576C4.67615 43.2831 7.43813 48.4504 11.4939 52.5061C15.5496 56.5618 20.7169 59.3238 26.3423 60.4428C31.9678 61.5617 37.7987 60.9874 43.0978 58.7925C48.3968 56.5976 52.926 52.8806 56.1126 48.1115C59.2991 43.3425 61 37.7357 61 32C61 24.3087 57.9446 16.9325 52.506 11.4939C47.0675 6.05535 39.6912 3 32 3V3ZM32 56C27.2532 56 22.613 54.5924 18.6663 51.9553C14.7195 49.3181 11.6433 45.5698 9.82684 41.1844C8.01034 36.799 7.53506 31.9734 8.4611 27.3178C9.38715 22.6623 11.6729 18.3859 15.0294 15.0294C18.3858 11.673 22.6622 9.3872 27.3178 8.46115C31.9733 7.53511 36.7989 8.01039 41.1844 9.82689C45.5698 11.6434 49.3181 14.7195 51.9552 18.6663C54.5924 22.6131 56 27.2532 56 32C56 38.3652 53.4714 44.4697 48.9705 48.9706C44.4696 53.4714 38.3651 56 32 56Z" fill="#E9F1F2"/>
<path d="M2.99994 32C3.00239 38.3308 5.07571 44.487 8.90359 49.5295C12.7315 54.5719 18.1038 58.2238 24.2009 59.928C30.298 61.6321 36.7852 61.295 42.6729 58.968C48.5605 56.6411 53.5253 52.4521 56.8099 47.04C53.9487 50.6429 50.2709 53.513 46.0807 55.4129C41.8905 57.3129 37.3083 58.1882 32.7128 57.9663C28.1173 57.7445 23.6406 56.432 19.6529 54.1373C15.6651 51.8427 12.2809 48.6317 9.77994 44.77C9.88994 44.72 9.99994 44.67 10.1199 44.62C10.535 44.4636 10.8819 44.1663 11.0999 43.78C9.05961 40.1898 7.9911 36.1295 7.99994 32H2.99994Z" fill="#D0D8DA"/>
<path d="M21.9999 25V37L27.9999 46H35.9999L41.9999 37V25C41.9999 23.9391 41.5785 22.9217 40.8284 22.1716C40.0782 21.4214 39.0608 21 37.9999 21H25.9999C24.9391 21 23.9217 21.4214 23.1715 22.1716C22.4214 22.9217 21.9999 23.9391 21.9999 25Z" fill="#93999A"/>
<path d="M58.4599 20.13C57.0006 20.9378 55.4874 21.6442 53.9309 22.244C53.4474 22.435 53.0572 22.8068 52.8431 23.2805C52.6289 23.7543 52.6077 24.2929 52.7839 24.782C54.4052 29.4574 54.4052 34.5426 52.7839 39.218C52.6077 39.7072 52.6289 40.2457 52.8431 40.7195C53.0572 41.1933 53.4474 41.565 53.9309 41.756C55.4874 42.3559 57.0006 43.0622 58.4599 43.87C60.1343 40.1368 60.9999 36.0915 60.9999 32C60.9999 27.9085 60.1343 23.8632 58.4599 20.13V20.13Z" fill="#F8664F"/>
<path d="M5.53996 20.13C3.86561 23.8632 3 27.9085 3 32C3 36.0915 3.86561 40.1368 5.53996 43.87C6.99931 43.0622 8.51255 42.3559 10.069 41.756C10.5525 41.565 10.9427 41.1933 11.1568 40.7195C11.371 40.2457 11.3922 39.7072 11.216 39.218C9.59467 34.5426 9.59467 29.4574 11.216 24.782C11.3922 24.2929 11.371 23.7543 11.1568 23.2805C10.9427 22.8068 10.5525 22.435 10.069 22.244C8.51255 21.6442 6.99931 20.9378 5.53996 20.13V20.13Z" fill="#F8664F"/>
<path d="M40.6699 39L35.9999 46H27.9999L21.9999 37V25C21.9999 23.9391 22.4214 22.9217 23.1715 22.1716C23.9217 21.4214 24.9391 21 25.9999 21H28.9999V30.39C29.0018 32.6729 29.9095 34.8619 31.5238 36.4761C33.1381 38.0904 35.327 38.9981 37.6099 39H40.6699Z" fill="#656B76"/>
<path d="M31.9999 38C35.3136 38 37.9999 35.3137 37.9999 32C37.9999 28.6863 35.3136 26 31.9999 26C28.6862 26 25.9999 28.6863 25.9999 32C25.9999 35.3137 28.6862 38 31.9999 38Z" fill="#E9F1F2"/>
<path d="M33.3299 37.8501C32.8938 37.9509 32.4476 38.0013 31.9999 38.0001C30.6811 37.9977 29.3998 37.5609 28.3541 36.7572C27.3085 35.9535 26.5567 34.8276 26.2152 33.5538C25.8737 32.2799 25.9614 30.929 26.4648 29.71C26.9682 28.491 27.8591 27.4718 28.9999 26.8101V30.3901C28.9987 32.0919 29.5034 33.7557 30.4499 35.1701C31.1867 36.2767 32.1732 37.1947 33.3299 37.8501V37.8501Z" fill="#D0D8DA"/>
<path d="M31.9999 35C33.6568 35 34.9999 33.6569 34.9999 32C34.9999 30.3431 33.6568 29 31.9999 29C30.3431 29 28.9999 30.3431 28.9999 32C28.9999 33.6569 30.3431 35 31.9999 35Z" fill="#F8664F"/>
<path d="M34.87 32.87C34.7199 33.3663 34.4437 33.8152 34.0684 34.173C33.6931 34.5308 33.2315 34.7851 32.7286 34.9113C32.2257 35.0375 31.6986 35.0312 31.1989 34.893C30.6991 34.7549 30.2437 34.4895 29.8771 34.1229C29.5105 33.7562 29.2451 33.3008 29.1069 32.8011C28.9687 32.3013 28.9624 31.7743 29.0886 31.2714C29.2148 30.7685 29.4692 30.3069 29.827 29.9316C30.1847 29.5563 30.6337 29.2801 31.13 29.13C31.0455 29.4124 31.0017 29.7053 31 30C31 30.7957 31.316 31.5587 31.8786 32.1213C32.4412 32.6839 33.2043 33 34 33C34.2947 32.9982 34.5876 32.9545 34.87 32.87V32.87Z" fill="#CC5144"/>
<path d="M29.0709 31.3621C29.0249 31.5716 29.0011 31.7855 28.9999 32.0001C29.0007 32.7609 29.2927 33.4927 29.8159 34.0451C29.4231 33.1973 29.1715 32.291 29.0709 31.3621V31.3621Z" fill="#AD4038"/>
<path d="M11.2199 39.22C11.0577 38.7782 10.9208 38.3274 10.8099 37.87C10.1957 38.0451 9.55213 38.0928 8.91877 38.0101C8.28542 37.9275 7.67564 37.7163 7.12688 37.3895C6.57811 37.0626 6.10193 36.6271 5.72758 36.1096C5.35322 35.5921 5.08859 35.0035 4.94994 34.38C4.47907 32.2691 4.24098 30.1128 4.23994 27.95C4.23878 25.7832 4.48028 23.6231 4.95994 21.51C3.57302 25.0902 2.91014 28.91 3.0097 32.7481C3.10926 36.5863 3.96927 40.3665 5.53994 43.87C6.99899 43.0621 8.51267 42.3571 10.0699 41.76C10.5523 41.5667 10.9412 41.1945 11.1555 40.7212C11.3699 40.2478 11.3929 39.71 11.2199 39.22V39.22Z" fill="#CC5144"/>
<path d="M59.8699 40.04C59.4944 41.3495 59.0231 42.6296 58.4599 43.87C57.0009 43.0621 55.4872 42.357 53.9299 41.76C53.4476 41.5667 53.0586 41.1945 52.8443 40.7212C52.63 40.2478 52.6069 39.71 52.7799 39.22C54.4066 34.5441 54.4066 29.4559 52.7799 24.78C52.6069 24.29 52.63 23.7522 52.8443 23.2788C53.0586 22.8055 53.4476 22.4333 53.9299 22.24C54.5399 22 55.1299 21.76 55.7099 21.49C55.7226 21.5889 55.7461 21.6862 55.7799 21.78C57.4066 26.4559 57.4066 31.5441 55.7799 36.22C55.6069 36.71 55.63 37.2478 55.8443 37.7212C56.0586 38.1945 56.4476 38.5667 56.9299 38.76C57.9599 39.16 58.9399 39.58 59.8699 40.04Z" fill="#CC5144"/>
<path d="M25 32C25 33.3845 25.4105 34.7378 26.1797 35.889C26.9489 37.0401 28.0421 37.9373 29.3212 38.4672C30.6003 38.997 32.0078 39.1356 33.3656 38.8655C34.7235 38.5954 35.9708 37.9287 36.9497 36.9497C37.9287 35.9708 38.5954 34.7235 38.8655 33.3656C39.1356 32.0078 38.997 30.6003 38.4672 29.3212C37.9373 28.0421 37.0401 26.9489 35.889 26.1797C34.7378 25.4105 33.3845 25 32 25C30.1441 25.0021 28.3649 25.7403 27.0526 27.0526C25.7403 28.3649 25.0021 30.1441 25 32ZM37 32C37 32.9889 36.7068 33.9556 36.1573 34.7779C35.6079 35.6001 34.827 36.241 33.9134 36.6194C32.9998 36.9978 31.9945 37.0969 31.0245 36.9039C30.0546 36.711 29.1637 36.2348 28.4645 35.5355C27.7652 34.8363 27.289 33.9454 27.0961 32.9755C26.9031 32.0055 27.0022 31.0002 27.3806 30.0866C27.759 29.173 28.3999 28.3921 29.2221 27.8427C30.0444 27.2932 31.0111 27 32 27C33.3256 27.0016 34.5964 27.5289 35.5338 28.4662C36.4711 29.4036 36.9984 30.6744 37 32V32Z" fill="#323232"/>
<path d="M29 32C29 32.7956 29.3161 33.5587 29.8787 34.1213C30.4413 34.6839 31.2044 35 32 35C32.2652 35 32.5196 34.8946 32.7071 34.7071C32.8946 34.5196 33 34.2652 33 34C33 33.7348 32.8946 33.4804 32.7071 33.2929C32.5196 33.1054 32.2652 33 32 33C31.7348 33 31.4804 32.8946 31.2929 32.7071C31.1054 32.5196 31 32.2652 31 32C31 31.7348 31.1054 31.4804 31.2929 31.2929C31.4804 31.1054 31.7348 31 32 31C32.2652 31 32.5196 30.8946 32.7071 30.7071C32.8946 30.5196 33 30.2652 33 30C33 29.7348 32.8946 29.4804 32.7071 29.2929C32.5196 29.1054 32.2652 29 32 29C31.2044 29 30.4413 29.3161 29.8787 29.8787C29.3161 30.4413 29 31.2044 29 32V32Z" fill="#323232"/>
<path d="M54.62 12.306C54.5348 12.2036 54.43 12.1193 54.3117 12.058C54.1935 11.9967 54.0642 11.9596 53.9314 11.949C53.7987 11.9383 53.6651 11.9543 53.5386 11.9959C53.4121 12.0376 53.2952 12.1041 53.1948 12.1916C53.0943 12.279 53.0123 12.3857 52.9537 12.5052C52.895 12.6248 52.8608 12.7549 52.8531 12.8879C52.8454 13.0208 52.8643 13.154 52.9088 13.2795C52.9532 13.4051 53.0223 13.5205 53.112 13.619C54.7113 15.4567 56.0641 17.4952 57.136 19.683C56.2733 20.1323 55.3636 20.556 54.407 20.954C52.7335 17.5465 50.3047 14.5658 47.3054 12.2387C44.3062 9.91159 40.8155 8.29946 37.0991 7.52502C33.3828 6.75058 29.5387 6.83425 25.8595 7.76966C22.1804 8.70508 18.7632 10.4676 15.868 12.923C15.6655 13.0944 15.5394 13.3393 15.5175 13.6037C15.4955 13.8682 15.5795 14.1305 15.751 14.333C15.9224 14.5355 16.1673 14.6616 16.4317 14.6835C16.6962 14.7054 16.9585 14.6214 17.161 14.45C19.8281 12.1873 22.9771 10.564 26.3674 9.7042C29.7578 8.84437 33.2997 8.77068 36.7229 9.48876C40.146 10.2069 43.3598 11.6977 46.1188 13.8475C48.8777 15.9973 51.1089 18.7492 52.642 21.893C52.3477 22.1615 52.1104 22.4864 51.9439 22.8483C51.7775 23.2102 51.6854 23.6018 51.673 24H42.9C42.6679 22.8714 42.0538 21.8573 41.1612 21.1287C40.2687 20.4001 39.1522 20.0014 38 20C37.7348 20 37.4804 20.1053 37.2929 20.2929C37.1053 20.4804 37 20.7348 37 21C37 21.2652 37.1053 21.5195 37.2929 21.7071C37.4804 21.8946 37.7348 22 38 22C38.7956 22 39.5587 22.316 40.1213 22.8787C40.6839 23.4413 41 24.2043 41 25V36.7L35.465 45H28.535L23 36.7V25C23 24.2043 23.316 23.4413 23.8787 22.8787C24.4413 22.316 25.2043 22 26 22H34C34.2652 22 34.5195 21.8946 34.7071 21.7071C34.8946 21.5195 35 21.2652 35 21C35 20.7348 34.8946 20.4804 34.7071 20.2929C34.5195 20.1053 34.2652 20 34 20H26C24.8478 20.0014 23.7313 20.4001 22.8387 21.1287C21.9462 21.8573 21.3321 22.8714 21.1 24H12.327C12.3146 23.6016 12.2224 23.2097 12.0557 22.8476C11.8891 22.4855 11.6515 22.1605 11.357 21.892C12.187 20.1917 13.2231 18.6001 14.442 17.153C14.5268 17.0527 14.5911 16.9367 14.6311 16.8116C14.6711 16.6865 14.6861 16.5548 14.6751 16.4239C14.6642 16.293 14.6276 16.1656 14.5675 16.0488C14.5073 15.9321 14.4247 15.8283 14.3245 15.7435C14.2242 15.6586 14.1082 15.5944 13.9831 15.5544C13.858 15.5144 13.7263 15.4994 13.5954 15.5103C13.4645 15.5212 13.3371 15.5578 13.2203 15.618C13.1036 15.6781 12.9998 15.7607 12.915 15.861C11.6045 17.4173 10.4886 19.1276 9.59198 20.954C8.63464 20.554 7.72464 20.1303 6.86198 19.683C8.74829 15.8277 11.4962 12.458 14.8933 9.83466C18.2903 7.21132 22.2452 5.40465 26.4522 4.55442C30.6592 3.70418 35.0054 3.83319 39.1545 4.93145C43.3037 6.0297 47.1445 8.06777 50.38 10.888C50.479 10.9743 50.594 11.0402 50.7185 11.082C50.843 11.1238 50.9745 11.1407 51.1056 11.1317C51.2366 11.1227 51.3646 11.088 51.4822 11.0295C51.5998 10.971 51.7047 10.89 51.791 10.791C51.8773 10.692 51.9432 10.5769 51.985 10.4524C52.0268 10.3279 52.0437 10.1964 52.0347 10.0654C52.0257 9.93436 51.991 9.8064 51.9325 9.6888C51.874 9.57119 51.793 9.46626 51.694 9.37998C45.9656 4.38788 38.5559 1.7562 30.962 2.01667C23.368 2.27713 16.1561 5.41033 10.7832 10.7832C5.41033 16.1561 2.27713 23.368 2.01667 30.962C1.7562 38.5559 4.38788 45.9656 9.37998 51.694C9.46519 51.7963 9.56999 51.8807 9.68823 51.942C9.80647 52.0033 9.93576 52.0403 10.0685 52.051C10.2013 52.0617 10.3348 52.0457 10.4613 52.004C10.5878 51.9624 10.7048 51.8958 10.8052 51.8084C10.9056 51.7209 10.9876 51.6143 11.0463 51.4947C11.105 51.3751 11.1392 51.2451 11.1469 51.1121C11.1546 50.9791 11.1356 50.846 11.0912 50.7204C11.0467 50.5949 10.9776 50.4795 10.888 50.381C9.28863 48.5432 7.93588 46.5047 6.86398 44.317C7.72731 43.8683 8.63698 43.4446 9.59298 43.046C11.6509 47.2333 14.841 50.7601 18.8015 53.2266C22.762 55.693 27.3343 57.0004 32 57.0004C36.6657 57.0004 41.238 55.693 45.1985 53.2266C49.1589 50.7601 52.349 47.2333 54.407 43.046C55.3643 43.446 56.2746 43.8696 57.138 44.317C55.2521 48.1727 52.5045 51.5428 49.1077 54.1667C45.711 56.7905 41.7561 58.5977 37.549 59.4484C33.342 60.2992 28.9957 60.1706 24.8463 59.0727C20.6969 57.9748 16.8557 55.937 13.62 53.117C13.521 53.0307 13.4059 52.9648 13.2814 52.923C13.1569 52.8811 13.0254 52.8642 12.8944 52.8732C12.7634 52.8823 12.6354 52.917 12.5178 52.9754C12.4002 53.0339 12.2953 53.115 12.209 53.214C12.1227 53.313 12.0568 53.428 12.0149 53.5525C11.9731 53.677 11.9562 53.8085 11.9652 53.9396C11.9743 54.0706 12.009 54.1986 12.0674 54.3162C12.1259 54.4338 12.207 54.5387 12.306 54.625C18.0337 59.6246 25.4465 62.2624 33.045 62.0046C40.6435 61.7468 47.8605 58.6128 53.2362 53.2364C58.612 47.86 61.7451 40.6427 62.002 33.0441C62.2589 25.4456 59.6203 18.0331 54.62 12.306V12.306ZM43 30H48.219L48.719 32H43V30ZM21 32H15.281L15.781 30H18C18.2652 30 18.5195 29.8946 18.7071 29.7071C18.8946 29.5195 19 29.2652 19 29C19 28.7348 18.8946 28.4804 18.7071 28.2929C18.5195 28.1053 18.2652 28 18 28H15C14.777 28 14.5605 28.0745 14.3848 28.2116C14.209 28.3488 14.0841 28.5407 14.03 28.757L13.03 32.757C12.993 32.9044 12.9902 33.0584 13.0217 33.2071C13.0532 33.3558 13.1181 33.4954 13.2116 33.6152C13.3052 33.735 13.4248 33.832 13.5614 33.8986C13.698 33.9653 13.848 34 14 34H21V36H11.4C10.7366 32.6769 10.9066 29.2413 11.895 26H21V32ZM3.99998 32C3.99815 28.404 4.69295 24.8417 6.04598 21.51C7.23624 22.1291 8.45827 22.6852 9.70698 23.176C9.94894 23.2733 10.1433 23.4612 10.2487 23.6998C10.354 23.9383 10.362 24.2086 10.271 24.453C8.57516 29.3435 8.57516 34.6625 10.271 39.553C10.3617 39.7974 10.3534 40.0675 10.2478 40.3058C10.1423 40.5442 9.94788 40.7319 9.70598 40.829C8.45866 41.3196 7.23798 41.8753 6.04898 42.494C4.69699 39.1604 4.00126 35.5972 3.99998 32V32ZM11.358 42.107C11.7931 41.7085 12.101 41.1906 12.2433 40.6181C12.3856 40.0455 12.3559 39.4437 12.158 38.888C12.058 38.596 11.978 38.296 11.89 38H21.463L27.025 46.343L27.775 54.593C24.2562 53.9314 20.9402 52.4583 18.0903 50.2909C15.2405 48.1234 12.9353 45.3212 11.358 42.107V42.107ZM29.812 54.883L29.1 47H34.91L34.193 54.883C33.464 54.952 32.736 55 32 55C31.264 55 30.536 54.952 29.812 54.883ZM36.223 54.593L36.973 46.343L42.832 37.555C42.9412 37.3905 42.9997 37.1975 43 37V34H50C50.152 34 50.302 33.9653 50.4386 33.8986C50.5752 33.832 50.6948 33.735 50.7883 33.6152C50.8818 33.4954 50.9468 33.3558 50.9783 33.2071C51.0098 33.0584 51.0069 32.9044 50.97 32.757L49.97 28.757C49.9158 28.5407 49.7909 28.3488 49.6152 28.2116C49.4394 28.0745 49.2229 28 49 28H43V26H52.108C53.098 29.2409 53.2698 32.6765 52.608 36H46C45.7348 36 45.4804 36.1053 45.2929 36.2929C45.1053 36.4804 45 36.7348 45 37C45 37.2652 45.1053 37.5195 45.2929 37.7071C45.4804 37.8946 45.7348 38 46 38H52.108C52.02 38.3 51.942 38.595 51.84 38.888C51.6418 39.4439 51.612 40.0459 51.7543 40.6186C51.8966 41.1914 52.2047 41.7095 52.64 42.108C51.0624 45.322 48.7572 48.1239 45.9074 50.2912C43.0576 52.4585 39.7416 53.9314 36.223 54.593V54.593ZM54.293 40.824C54.051 40.7267 53.8566 40.5387 53.7513 40.3002C53.6459 40.0616 53.6379 39.7913 53.729 39.547C55.4236 34.658 55.4236 29.341 53.729 24.452C53.6383 24.2076 53.6466 23.9375 53.7521 23.6991C53.8576 23.4608 54.0521 23.2731 54.294 23.176C55.5413 22.6854 56.762 22.1296 57.951 21.511C60.681 28.2375 60.681 35.7634 57.951 42.49C56.7617 41.8709 55.5407 41.3148 54.293 40.824V40.824Z" fill="#323232"/>
</svg>
